<svg width="124" height="124" viewBox="0 0 124 124" fill="none" xmlns="http://www.w3.org/2000/svg">
<path d="M47.75 5H25C13.9543 5 5 13.9543 5 25V43M119 81V99C119 110.046 110.046 119 99 119H76.25M5 81V99C5 110.046 13.9543 119 25 119H47.75M76.25 5H99C110.046 5 119 13.9543 119 25V43" stroke="#19C37D" stroke-width="10" stroke-linecap="round"/>
<path d="M24.5 62H49.5M62 24.5V45.3333M99.5 62H74.5C68.6083 62 65.6625 62 63.8333 63.8333C62 65.6583 62 68.6042 62 74.5M62 86.0417V97.575M74.5 74.5V80.75C74.5 86.775 77.7667 87 82.8333 87C83.9384 87 84.9982 87.439 85.7796 88.2204C86.561 89.0018 87 90.0616 87 91.1667M78.6667 99.5H74.5M87 74.5C92.8917 74.5 95.8375 74.5 97.6667 76.3333C99.4958 78.1667 99.5 81.1167 99.5 87.0167C99.5 92.9167 99.5 95.8708 97.6667 97.7042C96.3333 99.0375 94.4042 99.4042 91.1667 99.5M24.5 37C24.5 31.1083 24.5 28.1625 26.3333 26.3333C28.1583 24.5 31.1042 24.5 37 24.5C42.8958 24.5 45.8375 24.5 47.6667 26.3333C49.5 28.1583 49.5 31.1042 49.5 37C49.5 42.8958 49.5 45.8375 47.6667 47.6667C45.8417 49.5 42.8958 49.5 37 49.5C31.1042 49.5 28.1625 49.5 26.3333 47.6667C24.5 45.8417 24.5 42.8958 24.5 37ZM24.5 87C24.5 81.1083 24.5 78.1625 26.3333 76.3333C28.1583 74.5 31.1042 74.5 37 74.5C42.8958 74.5 45.8375 74.5 47.6667 76.3333C49.5 78.1583 49.5 81.1042 49.5 87C49.5 92.8958 49.5 95.8375 47.6667 97.6667C45.8417 99.5 42.8958 99.5 37 99.5C31.1042 99.5 28.1625 99.5 26.3333 97.6667C24.5 95.8417 24.5 92.8958 24.5 87ZM74.5 37C74.5 31.1083 74.5 28.1625 76.3333 26.3333C78.1583 24.5 81.1042 24.5 87 24.5C92.8958 24.5 95.8375 24.5 97.6667 26.3333C99.5 28.1583 99.5 31.1042 99.5 37C99.5 42.8958 99.5 45.8375 97.6667 47.6667C95.8417 49.5 92.8958 49.5 87 49.5C81.1042 49.5 78.1625 49.5 76.3333 47.6667C74.5 45.8417 74.5 42.8958 74.5 37Z" stroke="#19C37D" stroke-width="8" stroke-linecap="round" stroke-linejoin="round"/>
</svg>
